<mxfile host="app.diagrams.net" modified="2021-11-12T01:20:28.292Z" agent="5.0 (Windows NT 10.0; Win64; x64) AppleWebKit/537.36 (KHTML, like Gecko) Chrome/95.0.4638.69 Safari/537.36" etag="6wrmejwp3peGLH5BV9tX" version="15.7.0" type="github">
  <diagram id="kgpKYQtTHZ0yAKxKKP6v" name="Page-1">
    <mxGraphModel dx="981" dy="553" grid="1" gridSize="10" guides="1" tooltips="1" connect="1" arrows="1" fold="1" page="1" pageScale="1" pageWidth="2339" pageHeight="3300" math="0" shadow="0">
      <root>
        <mxCell id="0" />
        <mxCell id="1" parent="0" />
        <mxCell id="3nuBFxr9cyL0pnOWT2aG-1" value="Server" style="shape=umlLifeline;perimeter=lifelinePerimeter;container=1;collapsible=0;recursiveResize=0;rounded=0;shadow=0;strokeWidth=1;labelBackgroundColor=none;fillColor=#fff2cc;strokeColor=#d6b656;" parent="1" vertex="1">
          <mxGeometry x="181" y="80" width="100" height="300" as="geometry" />
        </mxCell>
        <mxCell id="3nuBFxr9cyL0pnOWT2aG-2" value="" style="points=[];perimeter=orthogonalPerimeter;rounded=0;shadow=0;strokeWidth=1;fillColor=#fff2cc;strokeColor=#d6b656;" parent="3nuBFxr9cyL0pnOWT2aG-1" vertex="1">
          <mxGeometry x="45" y="70" width="10" height="190" as="geometry" />
        </mxCell>
        <mxCell id="s8NgI9w9B87UUFE77cS2-2" value="1. generate&amp;nbsp;public/private key&lt;br&gt;2. save private key in session" style="endArrow=classic;html=1;rounded=0;align=left;" edge="1" parent="3nuBFxr9cyL0pnOWT2aG-1">
          <mxGeometry y="-176" width="50" height="50" relative="1" as="geometry">
            <mxPoint x="45" y="80" as="sourcePoint" />
            <mxPoint x="45" y="120" as="targetPoint" />
            <Array as="points">
              <mxPoint x="25" y="100" />
            </Array>
            <mxPoint x="-52" y="-124" as="offset" />
          </mxGeometry>
        </mxCell>
        <mxCell id="s8NgI9w9B87UUFE77cS2-5" value="1. decrypt using the private key&amp;nbsp;&lt;br&gt;&amp;nbsp; &amp;nbsp; saved in session.&lt;br&gt;2. search using decrypt string in DB&lt;br&gt;&amp;nbsp;" style="endArrow=classic;html=1;rounded=0;align=left;" edge="1" parent="3nuBFxr9cyL0pnOWT2aG-1">
          <mxGeometry y="-176" width="50" height="50" relative="1" as="geometry">
            <mxPoint x="45" y="160" as="sourcePoint" />
            <mxPoint x="45" y="200" as="targetPoint" />
            <Array as="points">
              <mxPoint x="25" y="180" />
            </Array>
            <mxPoint x="-52" y="-124" as="offset" />
          </mxGeometry>
        </mxCell>
        <mxCell id="3nuBFxr9cyL0pnOWT2aG-5" value="Client" style="shape=umlLifeline;perimeter=lifelinePerimeter;container=1;collapsible=0;recursiveResize=0;rounded=0;shadow=0;strokeWidth=1;fillColor=#dae8fc;strokeColor=#6c8ebf;" parent="1" vertex="1">
          <mxGeometry x="571" y="70" width="100" height="300" as="geometry" />
        </mxCell>
        <mxCell id="3nuBFxr9cyL0pnOWT2aG-6" value="" style="points=[];perimeter=orthogonalPerimeter;rounded=0;shadow=0;strokeWidth=1;fillColor=#dae8fc;strokeColor=#6c8ebf;" parent="3nuBFxr9cyL0pnOWT2aG-5" vertex="1">
          <mxGeometry x="45" y="80" width="10" height="160" as="geometry" />
        </mxCell>
        <mxCell id="s8NgI9w9B87UUFE77cS2-1" value="encrypt id, password with public key" style="endArrow=classic;html=1;rounded=0;" edge="1" parent="3nuBFxr9cyL0pnOWT2aG-5">
          <mxGeometry y="104" width="50" height="50" relative="1" as="geometry">
            <mxPoint x="55" y="130" as="sourcePoint" />
            <mxPoint x="55" y="170" as="targetPoint" />
            <Array as="points">
              <mxPoint x="75" y="150" />
            </Array>
            <mxPoint x="30" y="-74" as="offset" />
          </mxGeometry>
        </mxCell>
        <mxCell id="3nuBFxr9cyL0pnOWT2aG-9" value="request login page" style="verticalAlign=bottom;endArrow=block;entryX=1.4;entryY=0.013;shadow=0;strokeWidth=1;entryDx=0;entryDy=0;entryPerimeter=0;" parent="1" source="3nuBFxr9cyL0pnOWT2aG-6" target="3nuBFxr9cyL0pnOWT2aG-2" edge="1">
          <mxGeometry relative="1" as="geometry">
            <mxPoint x="301" y="200" as="sourcePoint" />
          </mxGeometry>
        </mxCell>
        <mxCell id="3nuBFxr9cyL0pnOWT2aG-10" value="response login page + public key" style="verticalAlign=bottom;endArrow=open;dashed=1;endSize=8;shadow=0;strokeWidth=1;exitX=1.162;exitY=0.256;exitDx=0;exitDy=0;exitPerimeter=0;" parent="1" source="3nuBFxr9cyL0pnOWT2aG-2" target="3nuBFxr9cyL0pnOWT2aG-5" edge="1">
          <mxGeometry relative="1" as="geometry">
            <mxPoint x="560" y="230" as="targetPoint" />
            <mxPoint x="310" y="210" as="sourcePoint" />
          </mxGeometry>
        </mxCell>
        <mxCell id="s8NgI9w9B87UUFE77cS2-4" value="login with encryption stringÂ " style="verticalAlign=bottom;endArrow=block;entryX=1.4;entryY=0.013;shadow=0;strokeWidth=1;entryDx=0;entryDy=0;entryPerimeter=0;" edge="1" parent="1">
          <mxGeometry relative="1" as="geometry">
            <mxPoint x="616" y="240.00000000000003" as="sourcePoint" />
            <mxPoint x="240" y="240.00000000000003" as="targetPoint" />
          </mxGeometry>
        </mxCell>
        <mxCell id="s8NgI9w9B87UUFE77cS2-6" value="response result" style="verticalAlign=bottom;endArrow=open;dashed=1;endSize=8;shadow=0;strokeWidth=1;exitX=1.162;exitY=0.256;exitDx=0;exitDy=0;exitPerimeter=0;" edge="1" parent="1">
          <mxGeometry relative="1" as="geometry">
            <mxPoint x="622.8800000000002" y="280" as="targetPoint" />
            <mxPoint x="239.9999999999999" y="280" as="sourcePoint" />
          </mxGeometry>
        </mxCell>
      </root>
    </mxGraphModel>
  </diagram>
</mxfile>
